<?xml version="1.0" standalone="no"?>
<!DOCTYPE svg PUBLIC "-//W3C//DTD SVG 20010904//EN"
 "http://www.w3.org/TR/2001/REC-SVG-20010904/DTD/svg10.dtd">
<svg version="1.0" xmlns="http://www.w3.org/2000/svg"
 width="1191.000000pt" height="670.000000pt" viewBox="0 0 1191.000000 670.000000"
 preserveAspectRatio="xMidYMid meet">
<metadata>
Created by potrace 1.16, written by Peter Selinger 2001-2019
</metadata>
<g transform="translate(0.000000,670.000000) scale(0.100000,-0.100000)"
fill="#000000" stroke="none">
<path d="M360 3990 c-112 -24 -208 -100 -258 -208 l-27 -57 -3 -422 -3 -423
91 0 90 0 0 65 0 65 185 0 185 0 0 -65 0 -65 91 0 90 0 -3 418 c-3 400 -4 419
-24 469 -67 163 -243 258 -414 223z m137 -195 c50 -21 72 -42 94 -90 24 -53
24 -99 -2 -152 -51 -106 -183 -131 -273 -52 -96 83 -77 232 36 288 51 25 95
27 145 6z m-82 -513 c64 -3 92 0 140 17 32 12 61 21 62 21 2 0 3 -29 3 -65 l0
-65 -185 0 -185 0 0 69 0 69 43 -21 c28 -14 69 -22 122 -25z"/>
<path d="M7467 3650 c-147 -38 -255 -162 -292 -337 -46 -216 26 -393 177 -438
98 -29 184 -15 245 38 l36 32 -6 -32 -6 -33 74 0 c41 0 75 1 75 3 0 1 18 94
40 207 22 112 40 206 40 208 0 1 -66 1 -147 0 l-147 -3 -13 -60 c-21 -103 -20
-105 34 -105 l48 0 -31 -31 c-55 -55 -158 -49 -189 10 -48 94 -8 274 74 328
64 43 143 24 156 -37 l7 -30 105 0 106 0 -6 54 c-10 96 -61 170 -146 208 -50
23 -175 33 -234 18z"/>
<path d="M9223 3646 c-134 -44 -228 -149 -269 -301 -18 -67 -18 -219 1 -281
23 -77 67 -129 140 -165 56 -27 74 -31 147 -31 144 -1 246 51 323 165 67 98
98 261 75 386 -20 113 -63 171 -155 212 -62 28 -199 36 -262 15z m166 -210
c48 -51 46 -179 -4 -281 -28 -58 -59 -84 -109 -92 -41 -7 -71 9 -96 50 -50 81
4 297 83 335 41 20 101 14 126 -12z"/>
<path d="M10602 3642 c-110 -39 -164 -110 -170 -223 -8 -126 42 -180 220 -238
37 -13 77 -30 89 -40 45 -36 -6 -101 -79 -101 -41 0 -80 34 -84 73 l-3 32
-113 3 -113 3 6 -53 c10 -79 43 -138 99 -175 61 -42 103 -53 197 -53 184 0
303 90 316 240 12 128 -48 201 -205 250 -102 32 -122 43 -122 70 0 48 100 70
140 30 11 -11 20 -27 20 -35 0 -12 18 -15 101 -15 l101 0 -4 54 c-10 121 -99
187 -258 193 -64 3 -98 -1 -138 -15z"/>
<path d="M915 3628 c-2 -7 -9 -42 -15 -78 -6 -36 -14 -75 -17 -87 -5 -23 -4
-23 91 -23 53 0 96 -2 96 -4 0 -2 -22 -122 -50 -266 -27 -144 -50 -268 -50
-276 0 -11 22 -14 110 -14 l109 0 7 38 c4 20 28 145 53 277 l47 240 96 3 96 3
16 87 c9 48 16 93 16 100 0 9 -67 12 -300 12 -232 0 -302 -3 -305 -12z"/>
<path d="M1560 3631 c0 -5 -31 -174 -70 -376 -38 -202 -70 -369 -70 -371 0 -2
49 -4 110 -4 105 0 110 1 115 23 7 28 55 269 55 273 0 2 41 4 90 4 65 0 90 -3
90 -12 0 -7 -11 -69 -25 -138 -13 -69 -25 -131 -25 -137 0 -10 28 -13 109 -13
l110 0 11 54 c6 30 39 200 74 378 l62 323 -109 3 c-60 1 -111 1 -113 -1 -2 -2
-14 -60 -27 -128 l-23 -124 -92 -3 c-52 -1 -92 1 -92 7 0 8 34 182 45 229 5
22 5 22 -110 22 -63 0 -115 -4 -115 -9z"/>
<path d="M2251 3588 c-25 -122 -131 -684 -131 -695 0 -10 65 -13 293 -13 l293
0 17 88 c9 49 17 94 17 100 0 9 -50 12 -181 12 l-181 0 7 37 c4 21 9 41 11 45
3 5 79 8 169 8 l163 0 12 53 c6 28 14 71 17 95 l6 42 -166 0 c-129 0 -165 3
-163 13 3 6 7 24 10 40 l6 27 179 0 179 0 16 88 c9 48 16 93 16 100 0 9 -65
12 -289 12 l-290 0 -10 -52z"/>
<path d="M3245 3628 c-2 -7 -33 -170 -70 -363 -37 -192 -69 -358 -72 -368 -4
-16 4 -17 108 -15 l113 3 20 113 20 112 96 0 c163 0 254 43 313 148 74 131 32
322 -80 368 -45 19 -442 20 -448 2z m323 -208 c12 -12 22 -26 22 -33 -1 -59
-41 -87 -125 -87 -62 0 -61 -2 -44 83 l12 57 56 0 c44 0 62 -5 79 -20z"/>
<path d="M3915 3618 c-13 -60 -135 -711 -135 -724 0 -11 21 -14 108 -14 l108
0 25 128 24 127 61 3 c48 2 66 -1 84 -16 22 -18 23 -24 21 -130 l-2 -112 108
0 109 0 -3 58 c-1 31 -4 96 -6 145 -3 71 -8 93 -25 117 -26 34 -27 40 -8 40
24 0 75 50 98 94 27 52 30 166 6 211 -44 84 -83 94 -350 95 l-218 0 -5 -22z
m347 -180 c32 -25 24 -84 -14 -107 -23 -14 -168 -29 -168 -18 0 9 21 110 25
125 3 8 27 12 73 12 39 0 75 -5 84 -12z"/>
<path d="M4625 3628 c-8 -26 -135 -714 -135 -730 0 -16 12 -18 110 -18 61 0
110 3 110 6 0 3 32 170 70 372 39 201 70 370 70 374 0 14 -220 10 -225 -4z"/>
<path d="M4911 3588 c-25 -121 -131 -684 -131 -695 0 -10 28 -13 105 -13 58 0
105 3 105 8 1 4 18 95 39 202 l38 195 31 -100 c16 -55 44 -146 62 -202 l31
-103 109 0 c61 0 110 3 110 8 0 4 31 169 70 367 38 198 70 366 70 373 0 9 -27
12 -104 12 l-105 0 -10 -52 c-6 -29 -23 -118 -37 -196 l-27 -144 -61 194 -62
193 -111 3 -111 3 -11 -53z"/>
<path d="M5594 3603 c-3 -21 -12 -66 -19 -100 l-13 -63 94 0 c80 0 94 -2 94
-16 0 -13 -74 -410 -96 -517 l-6 -28 113 3 112 3 53 270 c29 149 53 273 54
277 0 4 44 9 97 10 l98 3 17 90 c9 50 17 93 17 98 1 4 -136 7 -304 7 l-304 0
-7 -37z"/>
<path d="M6265 3628 c-2 -7 -33 -170 -70 -363 -36 -192 -68 -358 -71 -367 -5
-16 5 -18 108 -18 l114 0 69 358 c38 196 71 367 73 380 4 22 3 22 -107 22 -80
0 -113 -3 -116 -12z"/>
<path d="M6545 3618 c-17 -75 -135 -704 -135 -719 0 -17 9 -19 104 -19 99 0
104 1 109 23 3 12 20 102 38 199 18 98 34 176 36 174 2 -1 29 -90 61 -197 l58
-194 112 -3 c69 -2 112 1 112 7 0 6 32 173 70 371 39 198 70 365 70 370 0 6
-44 10 -104 10 l-105 0 -10 -52 c-6 -29 -24 -118 -39 -198 l-27 -145 -61 195
-61 195 -111 3 c-109 3 -112 2 -117 -20z"/>
<path d="M8315 3628 c-2 -7 -34 -170 -70 -363 -36 -192 -68 -358 -71 -367 -5
-16 5 -18 108 -18 l114 0 28 150 28 150 93 0 c83 0 93 -2 89 -17 -2 -10 -13
-67 -24 -128 -12 -60 -24 -120 -27 -133 l-5 -23 113 3 113 3 73 370 c39 204
72 373 72 378 1 4 -50 7 -112 7 l-113 0 -24 -130 -23 -130 -94 0 c-92 0 -93 0
-88 23 11 45 45 220 45 228 0 15 -220 11 -225 -3z"/>
<path d="M9760 3634 c0 -3 -23 -125 -51 -271 -47 -244 -50 -271 -40 -318 22
-98 93 -155 220 -177 127 -22 274 20 338 97 49 57 71 126 117 375 26 135 49
258 52 273 l6 28 -113 -3 -112 -3 -44 -230 c-24 -126 -53 -249 -64 -273 -49
-101 -169 -93 -169 11 0 33 62 388 84 480 4 15 -6 17 -110 17 -63 0 -114 -3
-114 -6z"/>
<path d="M11112 3593 c-26 -118 -132 -681 -132 -696 0 -16 24 -17 293 -17
l293 0 17 88 c9 49 17 94 17 100 0 9 -50 12 -181 12 l-181 0 6 31 c3 17 6 38
6 45 0 11 32 14 169 14 l169 0 16 88 c9 48 16 90 16 95 0 4 -74 7 -165 7
l-165 0 6 28 c3 15 7 33 10 40 2 9 48 12 182 12 l179 0 16 93 c10 51 17 96 17
100 0 4 -130 7 -289 7 l-289 0 -10 -47z"/>
<path d="M11724 3079 c-47 -13 -69 -44 -69 -95 0 -62 38 -99 101 -99 39 0 50
5 75 33 70 78 -4 191 -107 161z"/>
</g>
</svg>
