<?xml version="1.0" standalone="no"?>
<!DOCTYPE svg PUBLIC "-//W3C//DTD SVG 20010904//EN"
 "http://www.w3.org/TR/2001/REC-SVG-20010904/DTD/svg10.dtd">
<svg version="1.0" xmlns="http://www.w3.org/2000/svg"
 width="1280.000000pt" height="422.000000pt" viewBox="0 0 1280.000000 422.000000"
 preserveAspectRatio="xMidYMid meet">
<metadata>
Created by potrace 1.16, written by Peter Selinger 2001-2019
</metadata>
<g transform="translate(0.000000,422.000000) scale(0.100000,-0.100000)"
fill="#000000" stroke="none">
<path d="M2924 4140 c-347 -50 -537 -418 -378 -733 60 -117 208 -228 342 -256
149 -31 326 14 439 113 178 155 220 447 92 647 -33 53 -116 134 -169 166 -83
51 -223 78 -326 63z"/>
<path d="M5150 2955 c-461 -65 -863 -370 -1075 -817 -184 -388 -201 -847 -45
-1229 15 -38 25 -71 21 -73 -25 -15 -171 -38 -241 -38 -233 -1 -337 133 -369
473 -13 136 -31 853 -31 1237 l0 272 -425 0 -425 0 0 -877 c0 -898 3 -984 40
-1141 104 -437 394 -642 912 -642 259 0 528 65 866 210 l72 31 93 -56 c331
-197 735 -259 1135 -175 210 44 431 136 665 278 l127 77 0 267 c0 148 -2 268
-4 268 -2 0 -30 -16 -62 -36 -227 -138 -532 -234 -742 -234 -121 0 -279 42
-353 93 -19 14 -16 17 67 78 370 267 660 576 794 844 149 298 130 635 -50 874
-75 99 -152 161 -275 221 -198 97 -441 130 -695 95z m372 -782 c36 -21 62 -45
83 -78 26 -43 30 -57 29 -119 -3 -199 -189 -435 -548 -695 -54 -39 -102 -71
-106 -71 -13 0 -69 135 -90 215 -24 95 -27 245 -5 330 30 116 81 203 174 295
120 119 216 163 343 156 51 -2 79 -10 120 -33z"/>
<path d="M1285 2879 c-257 -27 -517 -119 -724 -256 -162 -108 -329 -299 -420
-481 -40 -80 -94 -242 -118 -352 -26 -123 -26 -518 0 -640 74 -344 229 -599
476 -786 160 -121 398 -221 616 -260 288 -50 741 -12 1008 86 l87 32 0 359 c0
294 -2 359 -13 359 -8 0 -40 -9 -72 -20 -127 -44 -270 -64 -445 -64 -191 0
-265 16 -408 85 -67 32 -102 58 -167 122 -125 124 -168 228 -167 407 0 313
176 530 493 609 205 51 412 33 757 -65 l22 -6 -2 383 -3 384 -65 18 c-289 79
-611 111 -855 86z"/>
<path d="M8303 2866 c-241 -46 -430 -169 -625 -406 l-37 -45 -1 198 0 197
-455 0 -455 0 0 -1325 0 -1325 455 0 454 0 4 778 c3 666 5 784 19 827 40 130
112 221 216 272 52 26 66 28 172 28 105 0 120 -2 171 -27 101 -50 168 -136
206 -265 15 -52 18 -139 21 -835 l3 -778 455 0 455 0 -4 967 c-3 939 -4 971
-24 1058 -84 363 -290 586 -614 665 -110 27 -316 35 -416 16z"/>
<path d="M10670 2874 c-14 -2 -65 -9 -115 -15 -173 -21 -404 -75 -662 -155
l-113 -35 0 -339 c0 -187 2 -340 5 -340 3 0 56 15 118 34 326 99 769 150 980
113 223 -39 343 -155 370 -356 6 -45 8 -83 5 -86 -3 -3 -56 8 -119 24 -185 48
-351 64 -579 58 -311 -8 -502 -62 -686 -193 -130 -92 -237 -249 -281 -414 -26
-93 -25 -388 1 -479 109 -394 451 -609 935 -588 266 11 460 86 658 254 l63 54
0 -126 0 -125 460 0 460 0 0 855 c0 901 -3 975 -46 1144 -42 167 -110 288
-222 399 -153 150 -360 248 -632 297 -68 12 -163 18 -335 20 -132 2 -251 2
-265 -1z m430 -1579 c30 -9 81 -26 113 -37 l59 -21 -7 -65 c-23 -213 -109
-353 -262 -429 -67 -33 -85 -38 -168 -41 -111 -5 -176 12 -246 63 -99 71 -134
228 -80 352 41 92 145 167 268 192 67 14 257 5 323 -14z"/>
<path d="M12540 467 c-49 -32 -74 -81 -74 -142 0 -97 56 -156 155 -163 49 -4
65 0 102 21 54 32 77 76 77 149 0 98 -65 158 -173 158 -40 0 -63 -6 -87 -23z
m161 -30 c76 -50 87 -141 25 -203 -58 -58 -138 -55 -191 8 -37 44 -43 93 -15
144 38 72 117 94 181 51z"/>
<path d="M12570 331 c0 -83 3 -101 15 -101 11 0 15 11 15 40 0 28 4 40 14 40
8 0 25 -18 37 -40 16 -29 29 -40 46 -40 25 0 23 10 -10 54 -12 16 -11 21 10
42 28 28 29 45 5 74 -14 18 -32 24 -75 28 l-57 4 0 -101z"/>
</g>
</svg>
