<?xml version="1.0" standalone="no"?>
<!DOCTYPE svg PUBLIC "-//W3C//DTD SVG 20010904//EN"
 "http://www.w3.org/TR/2001/REC-SVG-20010904/DTD/svg10.dtd">
<svg version="1.0" xmlns="http://www.w3.org/2000/svg"
 width="797.000000pt" height="448.000000pt" viewBox="0 0 797.000000 448.000000"
 preserveAspectRatio="xMidYMid meet">
<metadata>
Created by potrace 1.16, written by Peter Selinger 2001-2019
</metadata>
<g transform="translate(0.000000,448.000000) scale(0.100000,-0.100000)"
fill="#000000" stroke="none">
<path d="M3873 3921 l-78 -241 -160 -1 c-88 -1 -204 -4 -258 -8 l-98 -6 266
-132 c146 -73 265 -130 265 -125 0 4 -48 41 -106 82 l-105 75 133 3 c90 2 135
6 140 15 4 7 8 -32 8 -85 l0 -98 40 0 40 0 1 208 1 207 40 -122 40 -122 135
-3 135 -3 -106 -75 c-58 -41 -105 -79 -105 -85 -1 -5 17 -65 38 -133 l39 -123
-26 17 c-14 9 -61 43 -105 75 -69 50 -87 59 -124 59 -42 0 -43 -1 -43 -32 0
-29 -20 -53 -172 -205 -95 -95 -170 -175 -167 -177 5 -5 76 44 309 214 l106
77 204 -149 c113 -82 206 -145 208 -140 1 5 -31 114 -73 242 -41 128 -73 235
-71 239 2 3 94 71 205 151 110 80 194 146 188 148 -7 1 -122 6 -257 10 l-244
7 -77 233 c-42 128 -80 236 -82 239 -3 3 -41 -103 -84 -236z"/>
<path d="M1603 3591 c-43 -27 -73 -82 -128 -236 -59 -162 -116 -277 -189 -378
-68 -95 -86 -128 -86 -160 0 -30 18 -47 51 -47 21 0 28 6 32 28 3 15 38 72 77
127 84 117 140 229 205 412 51 143 77 187 131 219 32 20 34 23 19 38 -22 22
-73 20 -112 -3z"/>
<path d="M1700 3527 c-45 -30 -62 -61 -119 -219 -60 -166 -122 -289 -195 -391
-81 -113 -90 -132 -70 -151 35 -36 93 -10 183 82 31 32 65 75 76 96 11 22 26
41 34 44 21 7 9 -91 -33 -268 -44 -189 -65 -250 -135 -396 -121 -252 -243
-389 -427 -482 -86 -43 -165 -64 -211 -56 -133 23 -258 167 -258 295 0 78 12
89 96 89 76 0 89 10 91 72 2 72 -34 108 -107 108 -47 0 -85 -39 -117 -118 -20
-50 -23 -75 -23 -192 0 -114 4 -144 22 -192 44 -119 124 -199 233 -235 80 -26
217 -24 291 6 296 115 524 491 663 1092 65 281 113 623 103 732 -5 60 -28 107
-51 107 -7 0 -28 -10 -46 -23z"/>
<path d="M4865 3309 c-70 -8 -146 -35 -230 -82 -54 -30 -61 -39 -72 -78 -16
-60 -16 -151 0 -173 8 -11 23 -17 38 -14 21 3 25 9 30 58 13 119 15 123 74
159 90 55 179 83 285 90 89 7 93 8 65 20 -45 19 -122 27 -190 20z"/>
<path d="M6123 3309 c-43 -12 -62 -40 -194 -270 -169 -297 -223 -412 -224
-479 0 -51 2 -56 33 -75 38 -23 40 -5 -27 -225 -131 -426 -134 -606 -10 -649
l29 -10 -18 32 c-13 25 -17 55 -16 142 1 121 20 210 111 499 45 143 47 150 29
160 -11 6 -28 19 -39 30 -31 30 -18 91 51 232 89 181 281 515 315 547 25 23
38 27 91 28 l61 1 -40 18 c-52 23 -112 30 -152 19z"/>
<path d="M4900 3235 c-57 -16 -182 -73 -212 -96 -19 -15 -39 -122 -30 -165 6
-35 26 -30 101 25 91 67 164 102 227 108 51 5 55 4 88 -29 41 -41 61 -104 76
-233 19 -170 10 -300 -31 -460 -45 -176 -168 -446 -265 -582 -66 -92 -112 -96
-99 -8 9 58 81 270 118 345 l32 65 53 3 c63 4 63 -1 -4 110 -53 87 -81 122
-101 122 -25 0 -91 -39 -112 -66 -54 -69 -148 -334 -176 -499 -21 -119 -13
-160 40 -222 86 -101 197 -96 317 15 98 91 177 224 252 425 88 235 119 401
120 632 1 298 -45 433 -169 497 -52 27 -153 33 -225 13z"/>
<path d="M6182 3224 c-57 -54 -359 -607 -377 -691 -7 -34 12 -62 60 -89 19
-10 17 -17 -33 -175 -129 -409 -148 -592 -67 -659 39 -33 189 -29 258 7 148
76 427 519 427 677 0 56 -37 97 -104 116 -94 26 -187 -8 -266 -97 -44 -50 -88
-128 -78 -138 3 -4 30 6 58 20 47 24 54 25 68 11 14 -14 13 -22 -11 -84 -31
-76 -139 -272 -192 -344 -41 -55 -78 -83 -101 -74 -14 5 -16 17 -11 69 14 144
163 517 393 982 129 259 179 383 172 426 -5 33 -46 58 -109 65 -52 6 -58 4
-87 -22z"/>
<path d="M6869 3113 c-28 -26 -81 -92 -117 -147 -77 -115 -210 -374 -236 -460
-17 -53 -17 -61 -3 -91 15 -31 14 -36 -24 -139 -21 -58 -58 -168 -81 -244 -77
-250 -53 -389 72 -427 24 -7 24 -7 8 12 -48 54 -60 148 -32 257 25 98 74 253
116 365 37 102 38 106 23 138 -15 32 -15 38 5 98 30 91 146 315 223 433 78
120 128 177 176 201 l35 18 -32 17 c-52 27 -78 21 -133 -31z"/>
<path d="M6960 3048 c-89 -89 -290 -437 -336 -581 -16 -52 -16 -60 -2 -90 14
-31 14 -36 -19 -122 -51 -137 -132 -409 -139 -470 -6 -46 -3 -62 19 -107 63
-128 184 -116 340 31 l75 71 6 -27 c15 -61 91 -139 152 -157 44 -13 340 209
379 284 19 37 29 120 21 174 l-7 45 -88 -77 c-111 -98 -179 -136 -245 -136
-40 0 -53 5 -72 27 -29 34 -22 58 27 101 36 30 81 60 331 218 84 54 144 113
154 154 15 61 -49 164 -111 180 -69 17 -181 -42 -289 -153 -123 -126 -205
-265 -240 -407 -26 -103 -117 -241 -190 -286 -40 -24 -98 -26 -117 -4 -20 24
-16 115 9 210 28 106 152 392 296 684 108 219 165 348 181 412 5 19 1 32 -14
47 -34 34 -73 27 -121 -21z"/>
<path d="M5000 3078 c0 -2 10 -32 21 -68 17 -52 23 -99 27 -236 4 -150 2 -184
-17 -272 -12 -56 -28 -118 -35 -139 -13 -35 -12 -41 13 -85 14 -27 29 -48 32
-48 8 0 56 158 74 245 19 89 19 333 1 437 -18 100 -51 162 -89 166 -15 2 -27
2 -27 0z"/>
<path d="M5465 2966 c-42 -18 -82 -68 -96 -119 -23 -85 11 -190 69 -216 38
-18 42 -13 22 32 -23 49 -25 93 -8 151 15 49 72 108 118 123 l35 10 -37 17
c-45 19 -63 20 -103 2z"/>
<path d="M1532 2849 c-50 -54 -55 -63 -83 -170 -36 -141 -56 -192 -132 -343
-69 -136 -154 -255 -231 -320 -99 -85 -230 -152 -326 -166 l-45 -7 37 -16 c53
-24 112 -20 194 12 208 82 366 254 491 534 29 65 64 157 78 205 26 90 78 324
73 326 -2 1 -27 -24 -56 -55z"/>
<path d="M5526 2880 c-43 -38 -60 -86 -54 -157 6 -70 47 -117 102 -117 83 0
150 129 115 221 -31 83 -102 106 -163 53z"/>
<path d="M3514 2730 c-49 -20 -82 -84 -120 -233 -32 -126 -47 -164 -106 -262
-52 -88 -55 -97 -33 -115 29 -24 64 -3 111 70 57 89 70 120 105 253 45 171 81
238 135 251 31 8 30 20 -1 34 -30 14 -61 14 -91 2z"/>
<path d="M2894 2659 c-41 -12 -95 -68 -133 -138 -17 -32 -66 -117 -109 -187
-43 -71 -91 -160 -107 -199 -16 -38 -42 -86 -57 -106 -28 -35 -68 -126 -68
-154 0 -32 32 -12 102 65 54 59 81 99 104 152 16 40 64 129 105 198 42 69 92
155 112 191 45 81 93 125 154 141 l46 11 -22 19 c-25 19 -75 22 -127 7z"/>
<path d="M3575 2639 c-33 -41 -39 -56 -77 -199 -31 -117 -53 -170 -115 -273
-55 -92 -25 -88 66 8 l53 56 86 -3 c81 -3 87 -5 90 -25 5 -31 -23 -79 -138
-243 -108 -153 -160 -248 -160 -292 0 -43 50 -78 114 -78 63 0 115 30 294 171
61 49 116 89 121 89 5 0 11 -27 13 -59 6 -89 71 -171 154 -195 30 -9 217 117
311 209 63 62 72 76 83 126 8 35 10 78 6 113 l-7 56 -77 -69 c-126 -113 -217
-160 -281 -146 -33 7 -71 39 -71 60 0 39 89 107 368 280 95 58 157 118 168
161 15 61 -49 164 -111 180 -91 23 -247 -84 -383 -259 -50 -66 -114 -184 -132
-244 -11 -34 -25 -47 -118 -108 -127 -82 -182 -106 -206 -86 -40 34 -1 116
133 280 88 109 101 129 101 165 0 37 -43 56 -131 56 l-71 0 5 28 c40 202 42
213 26 240 -11 20 -24 28 -50 30 -31 3 -41 -2 -64 -29z"/>
<path d="M1798 2630 c-72 -22 -116 -81 -157 -211 -28 -88 -31 -105 -21 -130 7
-16 16 -29 20 -29 8 0 23 29 46 94 24 65 82 153 127 193 34 30 76 47 137 55
25 4 25 4 -7 21 -33 18 -99 21 -145 7z"/>
<path d="M4312 2629 c-140 -26 -372 -271 -449 -474 -28 -72 -28 -72 -122 -136
-67 -45 -98 -72 -104 -92 -5 -17 -6 -32 0 -38 12 -12 94 28 193 94 81 54 82
56 114 134 44 110 116 213 221 318 100 101 170 144 249 154 l51 7 -25 16 c-33
21 -76 27 -128 17z"/>
<path d="M7300 2630 c-66 -12 -135 -55 -222 -138 -138 -133 -226 -275 -264
-428 -22 -85 -73 -173 -141 -242 -56 -56 -62 -72 -38 -92 59 -49 211 123 261
298 47 161 115 273 249 407 100 101 170 144 249 154 l51 7 -25 16 c-32 20 -75
27 -120 18z"/>
<path d="M2285 2581 c-22 -10 -66 -45 -98 -78 l-58 -59 7 -55 6 -54 102 101
c78 79 111 105 144 115 l44 13 -34 17 c-42 23 -64 23 -113 0z"/>
<path d="M2961 2583 c-36 -18 -46 -32 -183 -263 -90 -152 -124 -216 -144 -272
-17 -48 -158 -204 -191 -213 -36 -9 -55 11 -48 49 4 17 39 101 80 186 40 85
85 188 99 228 23 66 25 76 12 100 -20 39 -109 120 -140 128 -59 14 -119 -27
-241 -165 -43 -50 -82 -91 -86 -91 -4 0 -7 31 -6 68 1 56 -4 79 -27 125 -38
79 -74 107 -138 107 -27 0 -66 -7 -85 -17 -39 -18 -97 -91 -137 -170 -28 -56
-31 -70 -17 -92 7 -11 24 2 72 53 50 54 67 66 88 64 24 -3 26 -7 29 -56 4 -73
-48 -223 -154 -440 -93 -192 -104 -242 -63 -283 18 -18 28 -20 73 -15 28 4 54
10 58 14 3 4 54 83 112 176 59 93 128 199 153 235 75 105 169 188 190 168 2
-3 -27 -91 -66 -196 -43 -115 -71 -205 -71 -229 0 -98 61 -202 112 -189 36 10
195 134 279 219 l77 76 7 -46 c11 -75 99 -223 146 -248 38 -19 96 -17 144 5
83 38 316 248 342 308 13 33 18 93 7 93 -3 0 -48 -39 -99 -87 -96 -91 -219
-170 -282 -180 -32 -5 -33 -5 -33 28 1 136 48 262 165 439 60 90 70 101 93 98
23 -3 30 -11 45 -58 28 -88 87 -123 87 -52 0 57 15 98 54 144 19 22 33 45 30
49 -3 5 -38 34 -79 65 -41 31 -75 59 -75 62 0 4 -17 26 -39 50 -33 36 -44 42
-77 42 -22 0 -54 -8 -73 -17z"/>
<path d="M4690 2476 c-58 -38 -91 -97 -158 -281 -18 -51 -26 -100 -31 -180 -5
-86 -11 -119 -29 -153 -12 -23 -22 -57 -22 -75 0 -53 64 -143 123 -174 42 -21
44 -9 8 33 -42 47 -51 73 -51 142 1 108 69 356 143 515 35 76 96 141 142 153
30 7 32 20 6 34 -33 17 -93 10 -131 -14z"/>
<path d="M5357 2457 c-65 -24 -78 -46 -57 -98 20 -47 6 -145 -41 -281 -36
-104 -43 -139 -47 -224 -7 -162 24 -254 85 -254 22 0 23 2 11 23 -6 12 -14 73
-16 137 -4 115 -4 115 43 260 59 181 70 275 35 310 -17 17 -21 27 -13 39 12
19 109 60 167 70 l41 7 -43 17 c-55 22 -93 21 -165 -6z"/>
<path d="M6111 2467 c-16 -8 -36 -41 -62 -101 -22 -49 -39 -92 -39 -94 0 -3
15 14 33 36 39 49 101 100 144 118 18 8 63 14 100 15 l68 1 -40 19 c-47 22
-166 26 -204 6z"/>
<path d="M493 2406 c-62 -28 -110 -144 -119 -291 -13 -209 72 -392 217 -465
l44 -23 -53 56 c-64 69 -106 155 -123 250 -24 144 11 324 77 397 30 33 42 39
82 42 l47 3 -25 17 c-36 24 -108 31 -147 14z"/>
<path d="M5448 2392 c-26 -9 -49 -19 -52 -22 -3 -3 2 -25 10 -50 21 -60 11
-126 -45 -295 -44 -134 -46 -145 -44 -247 1 -115 21 -180 55 -186 29 -5 101
151 239 521 65 174 71 213 37 244 -59 54 -118 64 -200 35z"/>
<path d="M1822 2353 c-26 -29 -47 -68 -72 -139 -19 -54 -71 -171 -114 -259
-70 -140 -80 -167 -80 -216 -1 -71 22 -109 64 -109 28 0 29 1 19 28 -15 39 -3
98 35 167 85 152 190 414 202 503 9 67 -8 74 -54 25z"/>
<path d="M3553 2188 c-6 -13 -57 -88 -113 -168 -124 -176 -162 -248 -163 -307
0 -47 18 -75 65 -99 36 -19 41 -18 28 5 -16 31 -11 92 10 139 11 24 55 94 97
155 201 291 201 291 132 295 -39 3 -47 0 -56 -20z"/>
<path d="M4319 2115 c-89 -82 -182 -149 -224 -159 -30 -8 -32 -21 -6 -36 56
-30 153 11 264 111 57 51 67 65 66 92 -1 77 -9 76 -100 -8z"/>
<path d="M4891 2104 c-50 -104 -111 -279 -111 -319 0 -28 0 -28 21 -9 11 10
40 50 64 89 47 76 160 303 153 310 -2 2 -22 7 -44 11 l-41 6 -42 -88z"/>
<path d="M6049 2165 c-42 -22 -52 -36 -118 -155 -49 -90 -77 -153 -88 -201
-25 -114 -1 -108 85 20 62 93 182 321 182 347 0 19 -7 17 -61 -11z"/>
<path d="M7299 2115 c-89 -82 -182 -149 -224 -159 -30 -8 -32 -21 -6 -36 56
-30 158 13 266 112 55 50 65 65 64 91 -1 77 -9 76 -100 -8z"/>
<path d="M2161 2104 c-112 -122 -155 -259 -121 -384 13 -47 75 -120 103 -120
14 0 12 8 -8 53 -43 91 -36 156 35 348 34 89 59 163 57 166 -3 2 -32 -26 -66
-63z"/>
<path d="M3050 1977 c-53 -51 -116 -103 -142 -116 -41 -22 -46 -29 -51 -65 -3
-22 -4 -42 -2 -44 5 -5 103 46 155 81 69 46 190 168 190 192 0 25 -18 45 -39
45 -9 -1 -59 -42 -111 -93z"/>
<path d="M380 975 l0 -495 628 0 628 0 69 70 69 70 71 -70 70 -70 1980 0 1979
0 68 67 68 67 68 -67 68 -67 692 0 692 0 0 495 0 495 -3575 0 -3575 0 0 -495z
m1537 363 c79 -29 163 -113 188 -188 43 -126 16 -251 -74 -341 -76 -75 -146
-103 -251 -97 -125 8 -231 81 -282 196 -33 73 -31 189 5 264 75 154 255 226
414 166z m530 2 c25 -15 47 -49 92 -137 l60 -118 0 138 1 138 113 -3 112 -3 3
-316 c1 -188 -2 -327 -7 -342 -15 -38 -54 -59 -109 -60 -80 -1 -107 22 -177
152 l-60 113 -3 -126 -3 -126 -109 0 -109 0 -3 305 c-2 168 0 318 5 334 17 68
122 95 194 51z m708 1 c23 -13 45 -48 85 -131 l55 -113 5 129 5 129 113 3 112
3 0 -336 c0 -319 -1 -336 -19 -354 -44 -44 -147 -46 -192 -5 -11 10 -47 68
-80 129 l-59 110 0 -127 0 -128 -115 0 -115 0 0 311 c0 335 4 363 53 387 36
18 119 14 152 -7z m2120 -91 l0 -105 -57 -3 -58 -3 0 -245 0 -245 -112 3 -113
3 4 242 4 242 -59 3 -59 3 -3 108 -3 107 228 -2 228 -3 0 -105z m323 -247 l2
-353 -115 0 -115 0 0 348 c0 192 3 352 7 356 4 3 54 5 112 4 l106 -3 3 -352z
m519 335 c78 -29 152 -103 182 -183 33 -86 27 -198 -14 -274 -105 -192 -362
-230 -519 -74 -63 62 -91 133 -91 228 0 65 5 90 26 135 40 85 120 153 209 181
51 15 148 9 207 -13z m500 2 c25 -15 47 -49 92 -137 l60 -118 0 138 1 138 113
-3 112 -3 3 -316 c1 -188 -2 -327 -7 -342 -15 -38 -54 -59 -109 -60 -81 -1
-107 22 -176 153 l-61 115 -3 -127 -3 -128 -109 0 -110 0 0 326 0 326 29 29
c25 25 37 29 83 29 35 0 64 -7 85 -20z m-5237 -95 l0 -105 -57 0 c-105 0 -168
-52 -168 -140 0 -88 63 -140 168 -140 l57 0 0 -110 0 -110 -68 0 c-125 0 -244
48 -308 122 -53 65 -77 128 -82 218 -5 104 18 174 79 244 82 93 157 125 292
126 l87 0 0 -105z m2730 16 l0 -88 -69 -5 c-71 -5 -133 -32 -145 -63 -4 -13
12 -15 104 -15 l110 0 0 -85 0 -85 -110 0 c-109 0 -111 0 -100 -21 17 -32 87
-59 153 -59 l57 0 0 -95 0 -95 -95 0 c-71 0 -108 5 -150 21 -73 27 -156 104
-192 177 -25 50 -28 68 -28 152 0 108 19 162 84 233 75 84 155 116 289 117
l92 0 0 -89z m550 -16 l0 -105 -62 0 c-100 0 -168 -57 -168 -141 0 -80 73
-139 173 -139 l57 0 0 -110 0 -110 -67 0 c-238 1 -396 144 -396 360 -1 92 32
172 96 238 82 84 147 110 280 111 l87 1 0 -105z"/>
<path d="M1760 1147 c-42 -14 -80 -68 -80 -112 0 -46 38 -98 83 -112 105 -35
195 80 137 174 -30 50 -82 69 -140 50z"/>
<path d="M5963 1148 c-78 -20 -110 -124 -57 -187 47 -57 140 -59 183 -5 75 95
-9 222 -126 192z"/>
</g>
</svg>
