<?xml version="1.0" standalone="no"?>
<!DOCTYPE svg PUBLIC "-//W3C//DTD SVG 20010904//EN"
 "http://www.w3.org/TR/2001/REC-SVG-20010904/DTD/svg10.dtd">
<svg version="1.0" xmlns="http://www.w3.org/2000/svg"
 width="326.000000pt" height="155.000000pt" viewBox="0 0 326.000000 155.000000"
 preserveAspectRatio="xMidYMid meet">

<g transform="translate(0.000000,155.000000) scale(0.100000,-0.100000)"
fill="#000000" stroke="none">
<path d="M113 1243 c4 -217 8 -271 26 -340 56 -221 178 -383 338 -449 32 -13
67 -24 77 -24 68 -1 270 166 325 269 64 120 74 183 79 509 l4 292 -427 0 -427
0 5 -257z m417 87 l0 -160 -205 0 -205 0 0 153 c0 85 3 157 7 160 3 4 96 7
205 7 l198 0 0 -160z m418 -2 l3 -158 -206 0 -205 0 0 153 c0 85 3 157 7 161
4 3 95 5 202 4 l196 -3 3 -157z m-505 -325 l98 -98 92 98 c51 54 98 98 105 97
15 0 16 -12 1 -27 -16 -16 -1 -37 16 -23 10 8 15 8 20 0 8 -13 -32 -60 -52
-60 -7 0 -13 -6 -13 -14 0 -7 -7 -19 -15 -26 -13 -11 -18 -10 -31 9 -13 18
-19 20 -30 10 -20 -16 -13 -32 16 -39 l24 -6 -24 -24 -24 -24 -6 24 c-8 33
-24 35 -43 6 -16 -24 -16 -26 12 -45 16 -12 33 -21 38 -21 5 0 16 -9 26 -20 9
-11 31 -23 48 -27 17 -3 37 -16 45 -28 13 -19 13 -26 0 -50 -21 -39 -67 -58
-95 -39 -12 9 -21 26 -21 38 0 13 -10 34 -23 47 -13 13 -31 41 -41 62 -10 21
-21 37 -26 35 -16 -6 -100 -139 -100 -158 0 -25 -37 -47 -53 -31 -6 6 -18 11
-27 11 -9 0 -21 15 -29 36 -11 31 -11 38 5 55 9 10 24 19 32 19 8 0 36 16 62
35 26 19 52 35 58 35 5 0 15 6 21 13 8 11 5 19 -13 36 -23 21 -54 21 -41 0 13
-20 -7 -30 -26 -13 -24 22 -24 34 -1 34 26 0 34 11 21 27 -15 18 -39 17 -39
-2 0 -8 -7 -15 -15 -15 -8 0 -15 4 -15 9 0 5 -19 27 -41 49 -24 23 -39 45 -34
51 5 9 10 9 20 1 17 -14 32 7 16 23 -13 13 -15 27 -4 27 4 0 52 -44 106 -97z"/>
<path d="M634 1438 c-9 -14 13 -16 128 -15 71 1 118 6 118 12 0 11 -239 14
-246 3z"/>
<path d="M843 1395 c0 -8 4 -15 9 -15 4 0 8 7 8 15 0 8 -4 15 -8 15 -5 0 -9
-7 -9 -15z"/>
<path d="M750 1389 c0 -5 5 -7 10 -4 6 3 10 8 10 11 0 2 -4 4 -10 4 -5 0 -10
-5 -10 -11z"/>
<path d="M736 1323 c-9 -63 -26 -86 -57 -75 -23 9 -23 9 5 16 39 10 26 18 -29
20 -46 1 -61 -12 -25 -21 24 -6 16 -23 -11 -23 -10 0 -19 -4 -19 -10 0 -6 57
-10 150 -10 89 0 150 4 150 10 0 11 -64 25 -78 17 -15 -10 -40 30 -47 77 -9
61 -30 60 -39 -1z m26 -45 c-9 -9 -12 -7 -12 12 0 19 3 21 12 12 9 -9 9 -15 0
-24z"/>
<path d="M804 1275 c26 -19 70 -19 86 0 11 13 5 15 -46 15 -54 -1 -57 -2 -40
-15z"/>
<path d="M358 1034 c-10 -9 3 -42 20 -49 26 -10 38 12 17 35 -19 21 -28 24
-37 14z"/>
<path d="M685 1020 c-24 -27 -6 -50 19 -25 9 9 16 20 16 25 0 19 -18 19 -35 0z"/>
<path d="M1279 1471 c-31 -32 -36 -55 -18 -95 11 -24 34 -36 123 -62 42 -13
55 -38 32 -63 -36 -40 -101 -20 -131 40 -24 45 -35 35 -35 -31 0 -60 8 -72 29
-46 10 12 16 12 39 0 77 -40 177 23 158 100 -9 35 -31 54 -79 67 -65 17 -87
28 -93 44 -10 26 16 46 55 43 28 -2 40 -11 59 -38 13 -19 27 -36 33 -38 5 -2
9 21 9 52 0 56 -6 66 -27 45 -8 -8 -17 -8 -31 0 -39 21 -91 13 -123 -18z"/>
<path d="M2160 1485 c0 -8 6 -15 14 -15 21 0 26 -23 26 -125 0 -84 -2 -95 -20
-105 -36 -19 -21 -30 40 -30 47 0 60 3 60 15 0 8 -7 15 -15 15 -18 0 -21 54
-5 95 7 20 16 26 33 23 19 -3 22 -10 25 -60 2 -47 0 -58 -13 -58 -8 0 -15 -7
-15 -15 0 -12 13 -15 60 -15 47 0 60 3 60 15 0 8 -7 15 -15 15 -12 0 -15 13
-15 58 0 73 -18 102 -65 102 -19 0 -37 -4 -40 -10 -15 -25 -25 -5 -25 50 l0
60 -45 0 c-33 0 -45 -4 -45 -15z"/>
<path d="M2052 1440 c-6 -16 -22 -35 -36 -42 -28 -12 -35 -38 -11 -38 12 0 15
-13 15 -60 0 -65 21 -100 60 -100 27 0 70 43 70 70 0 27 -28 26 -32 -2 -2 -13
-10 -23 -18 -23 -11 0 -16 14 -18 58 l-3 57 31 0 c39 0 41 27 3 32 -24 3 -28
8 -31 41 -4 45 -16 48 -30 7z"/>
<path d="M1543 1382 c-77 -60 -36 -177 62 -177 79 0 124 56 104 130 -17 59
-115 87 -166 47z m103 -49 c10 -39 -7 -97 -30 -101 -42 -8 -63 79 -30 126 12
18 19 20 34 12 11 -6 23 -22 26 -37z"/>
<path d="M1758 1393 c-20 -5 -23 -18 -8 -28 6 -3 10 -25 11 -48 2 -64 12 -91
42 -105 23 -11 32 -11 57 2 17 8 32 10 36 5 3 -5 23 -9 45 -9 28 0 39 4 39 15
0 8 -7 15 -15 15 -12 0 -15 16 -15 81 l0 82 -42 -7 c-51 -8 -59 -14 -35 -27
12 -7 17 -22 17 -52 0 -46 -13 -67 -42 -67 -16 0 -18 9 -18 75 l0 75 -27 -1
c-16 -1 -36 -3 -45 -6z"/>
<path d="M2459 1371 c-75 -76 3 -195 106 -161 39 13 63 46 47 62 -7 7 -14 3
-21 -10 -16 -30 -49 -37 -72 -16 -35 32 -24 44 41 44 54 0 60 2 60 20 0 29
-26 76 -45 84 -40 15 -87 6 -116 -23z m89 -3 c7 -7 12 -20 12 -30 0 -13 -8
-18 -30 -18 -22 0 -30 5 -30 18 0 17 18 42 30 42 3 0 11 -5 18 -12z"/>
<path d="M2673 1393 c-26 -5 -30 -18 -8 -27 11 -4 15 -21 15 -66 0 -47 -3 -60
-15 -60 -8 0 -15 -7 -15 -15 0 -12 14 -15 65 -15 51 0 65 3 65 15 0 9 -9 15
-21 15 -20 0 -21 4 -17 51 3 29 12 58 22 67 10 9 16 13 15 7 -4 -26 3 -36 23
-33 44 6 30 68 -15 68 -11 0 -29 -7 -39 -17 -17 -15 -18 -15 -18 0 0 17 -12
19 -57 10z"/>
<path d="M2873 1393 c-26 -5 -30 -18 -8 -27 11 -4 15 -21 15 -66 0 -47 -3 -60
-15 -60 -8 0 -15 -7 -15 -15 0 -12 13 -15 60 -15 47 0 60 3 60 15 0 8 -7 15
-15 15 -21 0 -21 93 0 110 29 24 45 4 45 -55 0 -30 -4 -55 -10 -55 -5 0 -10
-7 -10 -15 0 -12 13 -15 55 -15 42 0 55 3 55 15 0 8 -7 15 -15 15 -12 0 -15
14 -15 63 0 49 -4 68 -18 80 -22 20 -54 22 -83 5 -17 -10 -23 -10 -26 0 -5 12
-18 13 -60 5z"/>
<path d="M1340 933 c-48 -19 -90 -83 -90 -138 0 -89 59 -149 146 -149 94 0
148 59 141 157 -3 51 -8 62 -39 94 -31 31 -44 37 -90 39 -29 2 -60 1 -68 -3z
m104 -45 c11 -15 16 -45 16 -94 0 -81 -23 -124 -65 -124 -41 0 -65 43 -65 117
0 87 19 123 65 123 24 0 39 -7 49 -22z"/>
<path d="M2467 929 c-39 -22 -4 -79 35 -58 10 5 18 18 18 29 0 25 -30 41 -53
29z"/>
<path d="M1882 880 c-6 -16 -22 -35 -36 -42 -28 -12 -35 -38 -11 -38 12 0 15
-13 15 -60 0 -47 4 -64 20 -80 25 -25 51 -25 78 -2 28 23 40 72 19 72 -9 0
-17 -10 -19 -22 -2 -13 -10 -23 -18 -23 -11 0 -16 14 -18 58 l-3 57 31 0 c39
0 41 27 3 32 -24 3 -28 8 -31 41 -4 45 -16 48 -30 7z"/>
<path d="M1593 833 c-26 -5 -30 -18 -8 -27 11 -4 15 -21 15 -66 0 -47 -3 -60
-15 -60 -8 0 -15 -7 -15 -15 0 -12 13 -15 60 -15 47 0 60 3 60 15 0 8 -7 15
-16 15 -12 0 -14 10 -12 51 3 59 25 83 52 60 22 -18 23 -111 1 -111 -8 0 -15
-7 -15 -15 0 -12 13 -15 55 -15 42 0 55 3 55 15 0 8 -4 15 -10 15 -5 0 -10 20
-10 44 0 96 -41 138 -101 103 -23 -13 -28 -13 -33 -1 -5 14 -20 15 -63 7z"/>
<path d="M2032 824 c-31 -22 -26 -59 8 -59 17 0 26 7 30 24 7 30 23 37 40 16
19 -23 5 -42 -38 -50 -49 -8 -75 -34 -70 -71 4 -40 45 -54 93 -31 19 9 35 13
35 8 0 -14 37 -23 60 -16 23 7 27 35 5 35 -12 0 -15 13 -15 60 0 47 -4 64 -20
80 -25 25 -95 27 -128 4z m88 -103 c0 -24 -25 -45 -45 -37 -22 8 -18 35 8 46
33 13 37 12 37 -9z"/>
<path d="M2253 833 c-26 -5 -30 -18 -8 -27 11 -4 15 -21 15 -66 0 -47 -3 -60
-15 -60 -8 0 -15 -7 -15 -15 0 -12 14 -15 65 -15 51 0 65 3 65 15 0 9 -9 15
-21 15 -20 0 -21 4 -17 51 6 54 38 106 38 60 0 -17 5 -22 22 -19 26 3 35 32
18 53 -15 18 -51 19 -69 3 -11 -10 -14 -10 -18 0 -5 12 -18 13 -60 5z"/>
<path d="M2453 833 c-26 -5 -30 -18 -8 -27 11 -4 15 -21 15 -66 0 -47 -3 -60
-15 -60 -8 0 -15 -7 -15 -15 0 -12 13 -15 60 -15 47 0 60 3 60 15 0 8 -7 15
-15 15 -12 0 -15 16 -15 80 0 87 1 86 -67 73z"/>
<path d="M2599 811 c-59 -59 -29 -151 54 -166 101 -19 168 95 98 166 -24 24
-38 29 -76 29 -38 0 -52 -5 -76 -29z m107 -26 c17 -68 -15 -135 -50 -106 -23
19 -22 117 1 129 23 13 42 4 49 -23z"/>
<path d="M980 605 c-13 -15 -9 -90 5 -103 4 -4 24 13 46 38 36 41 37 45 22 62
-20 22 -56 23 -73 3z"/>
<path d="M33 584 c-7 -19 23 -87 48 -110 18 -16 19 -15 19 29 0 25 -5 58 -12
72 -12 28 -45 34 -55 9z"/>
<path d="M1017 463 c-10 -9 -9 -23 1 -23 5 0 9 7 9 15 0 17 -1 18 -10 8z"/>
<path d="M745 404 l-40 -24 41 0 c38 0 42 2 42 25 0 14 -1 25 -2 24 0 0 -19
-12 -41 -25z"/>
<path d="M300 399 c0 -16 8 -19 47 -19 54 0 53 3 -5 23 -40 14 -42 14 -42 -4z"/>
<path d="M960 410 c0 -6 7 -10 15 -10 8 0 15 2 15 4 0 2 -7 6 -15 10 -8 3 -15
1 -15 -4z"/>
<path d="M101 391 c-10 -6 -11 -14 -3 -26 9 -17 10 -17 21 3 12 23 2 35 -18
23z"/>
<path d="M501 384 c0 -11 3 -14 6 -6 3 7 2 16 -1 19 -3 4 -6 -2 -5 -13z"/>
<path d="M546 387 c3 -10 9 -15 12 -12 3 3 0 11 -7 18 -10 9 -11 8 -5 -6z"/>
<path d="M586 387 c3 -10 9 -15 12 -12 3 3 0 11 -7 18 -10 9 -11 8 -5 -6z"/>
<path d="M661 381 c-1 -20 1 -21 14 -11 16 14 21 25 6 16 -5 -4 -12 0 -14 6
-3 7 -6 2 -6 -11z"/>
<path d="M910 387 c0 -9 5 -17 11 -17 5 0 7 -5 3 -12 -4 -7 -3 -8 5 -4 9 6 9
12 -1 24 -7 10 -14 19 -15 21 -2 2 -3 -3 -3 -12z"/>
<path d="M421 374 c0 -11 3 -14 6 -6 3 7 2 16 -1 19 -3 4 -6 -2 -5 -13z"/>
<path d="M440 375 c0 -8 4 -15 10 -15 5 0 7 7 4 15 -4 8 -8 15 -10 15 -2 0 -4
-7 -4 -15z"/>
<path d="M470 381 c0 -6 4 -13 10 -16 6 -3 7 1 4 9 -7 18 -14 21 -14 7z"/>
<path d="M130 361 c-7 -14 -7 -21 0 -21 5 0 10 7 10 16 0 12 6 9 21 -10 22
-27 39 -27 38 2 0 14 -2 13 -9 -3 -6 -14 -9 -16 -10 -5 -2 8 -1 20 0 25 1 6
-2 7 -6 3 -4 -4 -13 -3 -20 3 -9 8 -15 5 -24 -10z"/>
<path d="M883 366 c1 -11 9 -21 17 -23 10 -3 11 -2 4 4 -6 4 -14 15 -17 23 -5
11 -6 9 -4 -4z"/>
<path d="M1327 362 c-33 -20 -67 -86 -67 -130 0 -99 88 -171 175 -142 41 13
75 53 75 86 0 34 -14 30 -31 -8 -27 -62 -97 -71 -124 -17 -18 33 -20 128 -4
162 6 14 23 30 37 37 21 9 30 8 51 -8 14 -10 30 -33 36 -50 16 -55 35 -39 35
28 0 46 -3 60 -14 60 -8 0 -18 -5 -21 -10 -4 -7 -12 -7 -25 0 -29 15 -92 11
-123 -8z"/>
<path d="M1780 366 c0 -8 7 -16 15 -20 12 -4 15 -27 15 -116 0 -91 -3 -110
-15 -110 -8 0 -15 -7 -15 -15 0 -12 13 -15 60 -15 47 0 60 3 60 15 0 8 -7 15
-15 15 -13 0 -15 21 -15 130 l0 130 -45 0 c-32 0 -45 -4 -45 -14z"/>
<path d="M1910 366 c0 -7 9 -16 20 -19 18 -5 20 -14 20 -111 0 -86 -3 -108
-15 -112 -8 -4 -15 -12 -15 -20 0 -10 15 -14 55 -14 42 0 55 3 55 15 0 8 -7
15 -16 15 -13 0 -15 18 -12 130 l3 130 -47 0 c-34 0 -48 -4 -48 -14z"/>
<path d="M2542 368 c-30 -30 3 -77 40 -57 24 13 23 46 -1 59 -24 13 -24 13
-39 -2z"/>
<path d="M851 352 c-7 -14 -6 -19 4 -19 7 0 13 9 12 19 -1 10 -2 18 -4 18 -1
0 -7 -8 -12 -18z"/>
<path d="M825 349 c-4 -6 -5 -12 -2 -15 2 -3 7 2 10 11 7 17 1 20 -8 4z"/>
<path d="M208 334 c-6 -23 18 -30 26 -7 3 8 2 12 -3 8 -5 -3 -11 0 -13 7 -3 7
-7 3 -10 -8z"/>
<path d="M801 336 c-1 -14 -4 -16 -14 -7 -10 8 -14 7 -14 -2 0 -7 14 -13 30
-14 16 0 25 2 20 6 -6 3 -13 13 -16 21 -4 11 -6 10 -6 -4z"/>
<path d="M2932 320 c-6 -16 -22 -35 -36 -42 -28 -12 -35 -38 -12 -38 10 0 15
-18 18 -65 4 -71 10 -80 50 -90 21 -5 33 -1 52 19 28 27 35 66 12 66 -8 0 -16
-10 -18 -22 -2 -13 -10 -23 -18 -23 -11 0 -16 14 -18 58 l-3 57 31 0 c39 0 41
27 3 32 -24 3 -28 8 -31 41 -4 45 -16 48 -30 7z"/>
<path d="M248 324 c-4 -17 0 -20 23 -20 35 1 46 12 19 19 -11 3 -20 0 -21 -6
0 -7 -4 -3 -8 7 -7 20 -8 20 -13 0z"/>
<path d="M730 336 c0 -2 8 -10 18 -17 15 -13 16 -12 3 4 -13 16 -21 21 -21 13z"/>
<path d="M2435 290 c-3 -5 -31 -10 -61 -10 -41 0 -59 -5 -74 -20 -21 -21 -26
-55 -11 -79 6 -9 5 -21 -2 -33 -9 -14 -9 -23 0 -37 10 -15 9 -22 -2 -31 -45
-38 35 -77 124 -60 65 12 92 58 55 94 -11 11 -35 16 -80 16 -36 0 -64 4 -64
10 0 6 18 10 40 10 74 0 112 35 95 88 -5 16 -2 19 13 15 23 -6 35 8 26 31 -7
18 -49 22 -59 6z m-45 -50 c15 -27 3 -60 -20 -60 -10 0 -21 9 -25 20 -7 21 10
60 25 60 5 0 14 -9 20 -20z m43 -167 c15 -14 -18 -33 -59 -33 -45 0 -67 16
-43 31 16 10 93 12 102 2z"/>
<path d="M912 278 c-23 -23 -12 -44 33 -66 60 -29 86 -28 116 6 l24 27 -26
-22 c-28 -25 -54 -29 -65 -11 -4 7 2 18 15 26 l22 15 -28 18 c-32 22 -73 25
-91 7z"/>
<path d="M1576 254 c-30 -31 -36 -95 -11 -131 22 -32 77 -47 119 -33 50 16 71
45 71 97 0 61 -35 93 -104 93 -39 0 -53 -5 -75 -26z m98 -10 c20 -19 21 -93 2
-119 -29 -40 -73 18 -60 79 11 54 31 68 58 40z"/>
<path d="M2093 265 c-12 -8 -27 -30 -33 -49 -27 -82 39 -148 125 -125 39 11
72 48 53 60 -7 5 -18 0 -25 -10 -19 -28 -52 -32 -74 -10 -31 31 -18 44 44 47
52 3 57 5 57 26 0 13 -9 35 -21 50 -16 21 -29 26 -63 26 -23 0 -51 -7 -63 -15z
m71 -11 c9 -3 16 -17 16 -30 0 -20 -5 -24 -30 -24 -32 0 -36 9 -20 41 12 21
12 21 34 13z"/>
<path d="M2520 270 c-13 -9 -13 -12 3 -21 23 -14 25 -129 2 -129 -8 0 -15 -7
-15 -15 0 -12 13 -15 60 -15 57 0 79 13 45 26 -12 5 -15 24 -15 85 l0 79 -32
0 c-18 0 -40 -5 -48 -10z"/>
<path d="M2692 273 c-34 -13 -37 -73 -3 -73 22 0 41 19 35 35 -7 17 10 27 31
19 31 -12 13 -46 -33 -59 -54 -16 -72 -31 -72 -61 0 -33 40 -58 79 -49 17 4
33 11 36 16 4 5 17 1 31 -8 20 -13 30 -14 50 -4 26 11 25 31 -2 31 -11 0 -14
15 -14 64 0 80 -13 96 -78 95 -26 0 -53 -3 -60 -6z m76 -114 c-4 -31 -35 -49
-48 -29 -7 11 -4 20 11 33 28 23 41 22 37 -4z"/>
<path d="M3076 254 c-20 -20 -26 -37 -26 -68 0 -52 21 -83 64 -94 45 -13 80
-5 106 23 33 35 15 51 -22 20 -16 -14 -33 -25 -38 -25 -16 0 -40 31 -40 51 0
17 7 19 60 19 33 0 60 4 60 9 0 23 -24 73 -40 81 -37 20 -95 12 -124 -16z m94
-9 c18 -21 5 -45 -25 -45 -27 0 -35 26 -13 48 16 16 23 15 38 -3z"/>
<path d="M123 253 c-37 -13 -41 -17 -33 -33 7 -13 7 -21 0 -25 -23 -14 -7 -22
28 -14 40 9 72 40 72 70 0 22 -9 22 -67 2z"/>
<path d="M345 110 c0 -23 5 -40 11 -40 7 0 10 14 8 34 -2 29 2 36 19 39 16 3
14 5 -8 6 -29 1 -30 -1 -30 -39z"/>
<path d="M426 143 c-14 -14 -5 -33 20 -39 16 -4 23 -11 20 -21 -3 -8 -1 -11 4
-8 19 12 10 35 -15 41 -14 3 -25 10 -25 15 0 13 24 11 38 -3 9 -9 12 -9 12 3
0 15 -41 24 -54 12z"/>
<path d="M491 133 c0 -11 3 -13 6 -5 10 26 25 11 21 -23 -2 -21 0 -35 7 -35 7
0 9 14 7 35 -4 34 11 49 21 23 3 -8 6 -6 6 5 1 13 -7 17 -34 17 -27 0 -35 -4
-34 -17z"/>
<path d="M645 105 c0 -19 5 -35 10 -35 7 0 9 15 7 35 -2 19 -7 35 -11 35 -3 0
-6 -16 -6 -35z"/>
<path d="M697 133 c-10 -16 0 -33 18 -33 9 0 12 -6 8 -17 -4 -11 -3 -14 5 -9
14 9 16 66 2 66 -5 0 -7 -7 -4 -15 4 -8 1 -15 -4 -15 -6 0 -12 8 -14 18 -3 12
-6 14 -11 5z"/>
<path d="M758 111 c-3 -18 -1 -34 4 -37 4 -3 8 2 8 10 0 22 17 20 23 -1 2 -10
4 -1 4 20 0 24 -3 33 -9 25 -6 -11 -10 -10 -17 1 -6 9 -10 4 -13 -18z"/>
<path d="M817 124 c-10 -28 2 -56 22 -52 17 3 30 68 13 68 -5 0 -7 -13 -4 -30
2 -17 0 -30 -6 -30 -6 0 -12 15 -14 33 -3 28 -4 29 -11 11z"/>
<path d="M382 110 c0 -14 2 -19 5 -12 2 6 2 18 0 25 -3 6 -5 1 -5 -13z"/>
<path d="M392 85 c-11 -12 -10 -15 3 -15 8 0 15 7 15 15 0 18 -2 18 -18 0z"/>
<path d="M420 80 c0 -5 5 -10 11 -10 5 0 7 5 4 10 -3 6 -8 10 -11 10 -2 0 -4
-4 -4 -10z"/>
<path d="M570 80 c0 -5 5 -10 11 -10 5 0 7 5 4 10 -3 6 -8 10 -11 10 -2 0 -4
-4 -4 -10z"/>
<path d="M695 80 c3 -5 8 -10 11 -10 2 0 4 5 4 10 0 6 -5 10 -11 10 -5 0 -7
-4 -4 -10z"/>
</g>
</svg>
