<?xml version="1.0" standalone="no"?>
<!DOCTYPE svg PUBLIC "-//W3C//DTD SVG 20010904//EN"
 "http://www.w3.org/TR/2001/REC-SVG-20010904/DTD/svg10.dtd">
<svg version="1.0" xmlns="http://www.w3.org/2000/svg"
 width="1278.000000pt" height="289.000000pt" viewBox="0 0 1278.000000 289.000000"
 preserveAspectRatio="xMidYMid meet">
<metadata>
Created by potrace 1.16, written by Peter Selinger 2001-2019
</metadata>
<g transform="translate(0.000000,289.000000) scale(0.100000,-0.100000)"
fill="#000000" stroke="none">
<path d="M521 2810 c-152 -20 -284 -68 -348 -127 -65 -62 -76 -101 -81 -278
-5 -197 5 -261 54 -333 24 -34 152 -153 373 -346 185 -161 353 -312 375 -336
62 -69 66 -86 66 -306 0 -180 -2 -199 -20 -229 -52 -84 -251 -110 -375 -50
-79 38 -85 55 -85 249 l0 166 -206 0 -206 0 4 -193 c3 -175 5 -196 25 -233 62
-116 207 -175 482 -195 327 -24 601 32 717 147 71 70 76 96 72 365 -3 231 -3
235 -30 284 -38 73 -70 104 -423 404 -176 150 -335 290 -353 310 -49 55 -62
113 -62 275 0 165 11 197 74 230 90 46 292 29 346 -29 24 -26 25 -32 28 -191
l3 -164 205 0 206 0 -4 178 c-3 158 -5 181 -25 217 -44 83 -132 136 -278 167
-106 22 -416 32 -534 18z"/>
<path d="M5245 2809 c-94 -12 -241 -55 -290 -84 -60 -35 -105 -84 -134 -145
l-26 -55 0 -815 0 -815 26 -55 c78 -167 286 -240 679 -240 389 0 605 76 679
240 20 44 21 62 21 870 0 808 -1 826 -21 870 -49 110 -155 176 -344 216 -85
18 -486 27 -590 13z m449 -199 c59 -30 85 -62 97 -121 11 -57 11 -1501 0
-1558 -12 -59 -38 -91 -97 -121 -42 -22 -65 -25 -170 -28 -194 -6 -288 34
-313 132 -14 55 -15 1531 -2 1589 14 61 69 108 146 128 17 4 89 7 160 6 117
-2 135 -5 179 -27z"/>
<path d="M8281 2809 c-214 -26 -346 -93 -404 -203 -18 -36 -21 -63 -25 -201
-5 -197 5 -261 54 -333 24 -34 153 -154 373 -346 185 -162 353 -311 373 -332
63 -66 68 -89 68 -310 0 -217 -6 -240 -67 -275 -105 -62 -311 -42 -383 35 -24
27 -25 32 -28 202 l-3 174 -205 0 -206 0 4 -193 c3 -175 5 -196 25 -233 62
-116 207 -175 482 -195 399 -30 699 57 770 221 21 49 22 63 19 288 -3 236 -3
237 -30 289 -38 72 -61 94 -423 402 -176 150 -335 290 -353 310 -49 55 -62
113 -62 275 0 165 11 197 74 230 90 46 292 29 346 -29 24 -26 25 -32 28 -191
l3 -164 205 0 206 0 -4 178 c-3 158 -5 181 -25 217 -69 129 -225 183 -553 190
-102 2 -219 0 -259 -6z"/>
<path d="M11221 2810 c-215 -27 -353 -97 -406 -206 -16 -32 -20 -67 -23 -205
-5 -193 5 -257 50 -325 20 -30 161 -160 382 -353 193 -169 364 -322 380 -341
52 -62 56 -83 56 -291 0 -249 -10 -271 -136 -304 -130 -34 -280 -1 -324 70
-18 29 -20 49 -20 199 l0 166 -205 0 -205 0 0 -176 c0 -107 5 -192 12 -216 16
-54 79 -122 141 -152 224 -109 753 -109 970 0 76 38 113 69 144 122 l28 47 3
223 c4 255 -4 297 -66 380 -21 28 -198 188 -394 356 -296 255 -360 314 -380
354 -21 42 -23 63 -26 207 -2 138 0 165 15 195 27 53 79 74 193 77 119 4 184
-16 217 -66 21 -32 23 -44 23 -187 l0 -154 206 0 206 0 -4 178 c-3 160 -5 181
-25 218 -43 80 -135 135 -278 166 -106 22 -416 32 -534 18z"/>
<path d="M2600 2806 c0 -2 -194 -611 -430 -1352 -237 -742 -433 -1359 -436
-1371 l-6 -23 204 0 205 0 433 1357 c238 747 435 1366 438 1376 4 16 -10 17
-202 17 -113 0 -206 -2 -206 -4z"/>
<path d="M6430 1716 l0 -1096 200 0 200 0 0 489 0 488 263 6 c144 3 289 10
322 17 156 29 242 79 288 164 22 40 22 48 22 421 0 372 0 381 -22 421 -45 84
-125 129 -286 160 -64 12 -182 17 -534 21 l-453 5 0 -1096z m803 889 c89 -32
87 -21 87 -400 0 -316 -1 -334 -20 -357 -39 -50 -88 -61 -287 -66 l-183 -4 0
427 0 428 178 -6 c130 -4 190 -9 225 -22z"/>
<path d="M9204 2738 c183 -587 522 -1636 527 -1630 11 11 199 607 199 628 -1
10 -76 255 -169 544 l-167 525 -206 3 -207 2 23 -72z"/>
<path d="M10345 2798 c-3 -7 -200 -625 -439 -1373 l-433 -1360 200 -3 c110 -1
204 1 208 5 5 6 831 2583 870 2716 l8 27 -205 0 c-155 0 -206 -3 -209 -12z"/>
<path d="M3130 1706 l0 -1096 200 0 200 0 0 1006 0 1006 248 -4 c273 -5 308
-11 357 -70 l25 -30 0 -954 0 -954 205 0 206 0 -3 973 -3 972 -28 58 c-43 87
-119 132 -280 163 -67 13 -180 17 -604 21 l-523 5 0 -1096z"/>
<path d="M1464 2658 c336 -1058 501 -1568 505 -1568 10 0 203 619 199 640 -2
11 -77 254 -168 540 l-165 520 -206 0 -207 0 42 -132z"/>
<path d="M12386 2765 c-127 -45 -195 -189 -154 -327 16 -52 78 -121 134 -149
58 -28 159 -30 222 -4 52 21 124 100 140 153 33 108 -2 225 -86 289 -70 53
-172 68 -256 38z m185 -63 c43 -22 59 -38 82 -82 25 -48 28 -63 24 -114 -10
-109 -90 -186 -195 -186 -158 0 -249 157 -174 301 22 43 38 59 81 81 31 16 69
28 91 28 22 0 60 -12 91 -28z"/>
<path d="M12380 2520 l0 -150 25 0 c24 0 25 2 25 65 0 61 1 65 23 65 17 0 31
-16 60 -65 33 -57 42 -65 67 -65 17 0 30 2 30 5 0 2 -16 30 -36 61 l-36 57 31
24 c26 20 31 31 31 66 0 72 -25 87 -139 87 l-81 0 0 -150z"/>
</g>
</svg>
