<?xml version="1.0" encoding="utf-8"?>
<!-- Generator: Adobe Illustrator 19.2.1, SVG Export Plug-In . SVG Version: 6.00 Build 0)  -->
<svg version="1.1" id="layer" xmlns="http://www.w3.org/2000/svg" xmlns:xlink="http://www.w3.org/1999/xlink" x="0px" y="0px"
	 viewBox="0 0 652 652" style="enable-background:new 0 0 652 652;" xml:space="preserve">
<style type="text/css">
	.st0{fill:#EB0029;}
	.st1{fill:#111820;}
</style>
<g>
	<path class="st0" d="M56.7,311L56.7,311c0-10.1-8.2-18.2-18.3-18.2c-10.1,0-18.3,8.1-18.3,18.1v38.2h8.6v-6.4h19.5v6.4h8.6V311z
		 M38.3,301.8c5.2,0,9.4,4.2,9.4,9.4c0,5.2-4.2,9.3-9.4,9.3c-5.2,0-9.4-4.2-9.4-9.3C28.8,306,33.1,301.8,38.3,301.8 M47.9,333.9H29
		v-7.7c2.7,1.7,6,2.7,9.5,2.7c3.5,0,6.7-1,9.5-2.7V333.9z"/>
	<polygon class="st1" points="93.7,310.8 63.3,310.8 61.4,320.7 71.2,320.7 65.8,349.1 76.6,349.1 82.1,320.7 91.8,320.7 	"/>
	<polygon class="st1" points="117,310.8 114.5,324.1 104.5,324.1 107.1,310.8 96.2,310.8 88.9,349.1 99.7,349.1 102.7,334 
		112.6,334 109.7,349.1 120.5,349.1 127.9,310.8 	"/>
	<polygon class="st1" points="124.4,349.1 153.9,349.1 155.8,339.3 137.1,339.3 138.1,334.5 155.1,334.5 156.8,325.4 139.8,325.4 
		140.8,320.6 159.1,320.6 160.9,310.8 131.7,310.8 	"/>
	<path class="st1" d="M199.5,310.8H182l-7.4,38.3h10.7l2.2-11.6h7.3c9.3,0,15.3-6.7,15.3-14.4C210.2,314.7,206,310.8,199.5,310.8
		 M193.5,328.4h-4.1l1.5-7.8h3.7c2.3,0,4.7,0.5,4.7,3.4C199.3,326.7,197.9,328.4,193.5,328.4"/>
	<path class="st1" d="M245.6,320.9c0-8.1-5-10-11.5-10h-17.9l-7.3,38.3h10.7l2.6-13.4h4.7c3,0,4.4,1.5,4.4,3.5
		c0,1.9-0.5,4.3-0.5,6.1c0,1.7,0.1,2.8,0.4,3.8h10.4c-0.9-2.3-0.5-6.2-0.5-9.8c0-3.6-0.4-6.9-3.6-7.8v-0.1
		C242.5,330.5,245.6,326.4,245.6,320.9 M229.5,327.6h-5.7l1.5-7.6h5.9c2.8,0,3.7,1.8,3.7,3.3C234.8,325.6,233.1,327.6,229.5,327.6"
		/>
	<polygon class="st1" points="252.3,310.8 245,349.1 255.9,349.1 263.2,310.8 	"/>
	<polygon class="st1" points="284.7,331.8 284.6,331.8 278,310.8 267.2,310.8 259.9,349.1 270.2,349.1 274.3,327.7 274.4,327.7 
		280.9,349.1 291.5,349.1 298.9,310.8 288.6,310.8 	"/>
	<polygon class="st1" points="332.3,310.8 301.9,310.8 300,320.7 309.8,320.7 304.4,349.1 315.2,349.1 320.7,320.7 330.5,320.7 	"/>
	<polygon class="st1" points="335.8,310.8 328.5,349.1 339.3,349.1 346.7,310.8 	"/>
	<polygon class="st1" points="371.6,310.8 367.6,331.8 367.5,331.8 360.9,310.8 350.2,310.8 342.8,349.1 353.2,349.1 357.3,327.7 
		357.4,327.7 363.8,349.1 374.5,349.1 381.9,310.8 	"/>
	<path class="st1" d="M400.8,319.5c2.8,0,4.7,1.2,5,4.8h10.3c-0.1-10-6.7-14.3-14.6-14.3c-13.8,0-20.2,12-20.2,24
		c0,4.8,2,16.2,14.3,16.2c3.7,0,7.3-1.4,9.5-4.7l0.1,0.1l-0.3,3.7h6.9l4.1-21.1h-14.4l-1.6,8.2h4.9c-1.1,3.1-3.6,4.2-6.5,4.2
		c-4.4,0-6.2-3-6.2-7.5C392.2,326.4,394.9,319.5,400.8,319.5"/>
	<polygon class="st1" points="461,310.8 458.5,324.1 448.5,324.1 451.1,310.8 440.2,310.8 432.9,349.1 443.7,349.1 446.6,334 
		456.6,334 453.7,349.1 464.5,349.1 471.9,310.8 	"/>
	<path class="st1" d="M491.5,309.9c-12,0-19.8,10.5-19.8,23.3c0,11,6.1,16.8,16,16.8c12,0,19.8-10.5,19.8-23.3
		C507.6,315,501.5,309.9,491.5,309.9 M488.1,340.5c-4.2,0-5.5-3.5-5.5-7c0-5.7,2.1-14.1,8.6-14.1c4.2,0,5.5,3.5,5.5,7
		C496.7,332.1,494.6,340.5,488.1,340.5"/>
	<path class="st1" d="M535,310.8l-4,21.1c-0.8,4.2-2.2,8.6-6.7,8.6c-4.4,0-4.1-3.9-4.1-5c0-0.6,0.3-2.5,0.5-3.7l4-20.9h-10.9
		l-4.7,24.4c-0.1,0.9-0.4,2.4-0.4,3.1c0,6.1,4.4,11.7,15,11.7c8.9,0,15.4-4.2,17.3-13.9l4.8-25.3H535z"/>
	<path class="st1" d="M566.7,325.9c-3.4-1.3-8.7-1.5-8.7-4.4c0-2.5,2.4-3.1,4.2-3.1c1.2,0,2.4,0.2,3.2,0.8c0.8,0.6,1.3,1.6,1.2,3.2
		h10c0.2-9.4-6.6-12.5-14.1-12.5c-7.1,0-14.8,4-14.8,12.6c0,6.4,4.2,8.9,8.5,10.4c4.9,1.8,8.5,2.1,8.5,4.9c0,2.5-2.6,3.7-4.7,3.7
		c-1.8,0-3.1-0.1-4-1c-0.9-1-1.3-2.3-1.3-4.4H544c-0.4,9.8,6.9,13.8,15,13.8c7.7,0,15.9-4.4,15.9-13.6
		C574.9,331.9,572.8,328.3,566.7,325.9"/>
	<polygon class="st1" points="575.6,349.1 605.2,349.1 607.1,339.3 588.4,339.3 589.3,334.5 606.3,334.5 608,325.4 591.1,325.4 
		592,320.6 610.3,320.6 612.1,310.8 583,310.8 	"/>
	<path class="st1" d="M615.1,339.2c-2.7,0-5,2.1-5,4.9c0,2.8,2.3,5,5,5c2.7,0,5-2.1,5-5C620.1,341.4,617.8,339.2,615.1,339.2
		 M615.1,348.4c-2.3,0-4.1-1.8-4.1-4.2c0-2.4,1.8-4.2,4.1-4.2c2.3,0,4.1,1.8,4.1,4.2C619.2,346.6,617.4,348.4,615.1,348.4"/>
	<path class="st1" d="M617.5,343c0-1.1-0.6-1.7-2-1.7h-2.2v5.8h0.9v-2.5h0.9l1.6,2.5h1l-1.7-2.6C616.8,344.4,617.5,344,617.5,343
		 M615,343.9h-0.9V342h1.2c0.6,0,1.3,0.1,1.3,0.9C616.5,343.8,615.8,343.9,615,343.9"/>
</g>
</svg>
