<?xml version="1.0" standalone="no"?>
<!DOCTYPE svg PUBLIC "-//W3C//DTD SVG 20010904//EN"
 "http://www.w3.org/TR/2001/REC-SVG-20010904/DTD/svg10.dtd">
<svg version="1.0" xmlns="http://www.w3.org/2000/svg"
 width="1280.000000pt" height="1266.000000pt" viewBox="0 0 1280.000000 1266.000000"
 preserveAspectRatio="xMidYMid meet">
<metadata>
Created by potrace 1.16, written by Peter Selinger 2001-2019
</metadata>
<g transform="translate(0.000000,1266.000000) scale(0.100000,-0.100000)"
fill="#000000" stroke="none">
<path d="M6520 11157 c0 -215 31 -385 92 -498 43 -82 129 -183 200 -235 140
-103 270 -141 613 -179 269 -30 330 -39 445 -66 351 -81 592 -229 750 -460 62
-90 141 -245 176 -347 l19 -52 60 7 c33 5 128 8 210 7 206 -2 343 -35 514
-124 41 -22 76 -38 78 -36 2 2 -6 24 -17 50 -46 107 -54 162 -55 371 -2 227
-8 261 -70 387 -208 423 -554 653 -1174 778 -159 32 -307 44 -756 60 -154 5
-326 17 -383 25 -312 48 -521 166 -654 373 -23 34 -42 62 -44 62 -2 0 -4 -55
-4 -123z"/>
<path d="M8947 11258 c-12 -42 -7 -232 7 -300 29 -136 50 -164 240 -325 305
-260 452 -422 535 -588 68 -137 76 -182 73 -401 -3 -229 7 -293 72 -429 38
-82 174 -297 195 -310 5 -2 13 51 19 118 21 220 68 352 199 551 118 180 142
244 143 368 0 123 -40 265 -129 453 -48 101 -66 128 -111 167 -59 52 -138 97
-214 122 -27 9 -151 35 -275 56 -124 22 -253 46 -286 55 -156 41 -303 186
-426 418 -32 60 -37 66 -42 45z"/>
<path d="M2156 11243 c-3 -15 -20 -122 -36 -238 -87 -590 -33 -913 191 -1150
150 -157 331 -258 604 -333 153 -43 280 -67 564 -108 135 -19 270 -42 298 -50
60 -17 91 -50 74 -81 -5 -10 -96 -103 -201 -208 -249 -246 -315 -338 -346
-484 -29 -137 -11 -252 48 -308 43 -40 216 -139 393 -224 235 -113 872 -382
952 -402 64 -16 118 9 196 92 l64 68 18 -71 c87 -343 225 -565 403 -649 63
-30 74 -32 177 -32 l110 0 95 47 c134 65 219 131 495 383 287 263 448 372 640
437 97 32 280 32 369 0 33 -12 63 -22 67 -22 4 0 9 84 12 188 4 209 14 260 74
382 47 98 158 210 258 262 204 106 459 142 650 93 84 -22 209 -84 279 -138
120 -94 174 -183 196 -323 16 -98 0 -207 -72 -494 -52 -209 -61 -262 -66 -362
-4 -99 -1 -127 17 -187 12 -38 37 -90 56 -115 19 -25 33 -46 30 -46 -19 0
-182 58 -230 82 -131 66 -185 136 -185 241 0 84 30 161 142 365 150 273 186
383 168 515 -22 154 -208 340 -378 376 -83 17 -226 13 -322 -9 -119 -28 -313
-125 -374 -186 -133 -133 -168 -319 -145 -773 18 -340 17 -440 -5 -521 -64
-245 -254 -452 -666 -731 -127 -86 -181 -142 -229 -242 -51 -104 -71 -204 -71
-355 0 -138 -6 -128 118 -192 45 -23 91 -54 102 -67 11 -14 26 -23 33 -20 52
20 357 296 423 382 24 31 24 33 8 76 -40 112 -25 283 34 379 34 55 148 152
227 193 110 57 208 41 278 -45 38 -47 45 -109 22 -198 -57 -219 -201 -406
-540 -703 -88 -77 -195 -174 -237 -215 l-77 -75 60 -88 c38 -56 58 -93 53
-101 -4 -7 -24 -33 -45 -58 -20 -25 -44 -60 -53 -78 -17 -32 -17 -32 11 -43
42 -17 230 -23 293 -10 30 6 141 27 245 46 105 19 220 43 255 54 71 22 169 77
181 101 4 8 19 64 33 123 97 407 396 830 801 1137 115 87 141 100 339 170 231
81 291 126 291 218 0 26 -6 111 -14 188 -35 380 71 798 287 1129 80 123 162
223 277 335 l97 94 -18 31 c-50 89 -155 201 -248 264 -67 47 -195 108 -293
141 -271 90 -663 97 -968 16 -49 -14 -98 -28 -107 -31 -35 -14 -17 14 44 69
72 64 165 113 232 122 25 4 46 8 46 10 0 20 -120 260 -153 307 -123 171 -322
309 -557 386 -165 53 -265 73 -650 126 -285 40 -370 60 -468 109 -188 94 -276
200 -447 536 -68 132 -135 208 -201 228 -76 22 -271 51 -420 62 -96 7 -304 8
-584 4 -382 -6 -443 -5 -497 9 -119 31 -218 97 -258 171 -11 20 -22 36 -25 36
-7 0 -2 -152 11 -303 29 -343 139 -580 322 -694 147 -93 294 -125 623 -139
150 -6 162 -8 188 -31 23 -19 26 -26 16 -38 -19 -23 -619 -22 -728 1 -169 35
-336 124 -426 226 -25 29 -67 92 -93 142 -93 175 -218 272 -408 313 -111 24
-671 28 -970 6 -275 -20 -398 -7 -515 52 -91 46 -135 117 -200 325 -24 74 -46
139 -50 143 -5 5 -11 -4 -14 -20z m4745 -1489 c49 -12 732 -285 868 -347 l49
-22 -180 -195 c-100 -107 -184 -196 -189 -198 -4 -2 -102 36 -218 84 l-211 87
51 55 c27 30 47 57 44 60 -3 3 -63 29 -133 58 l-127 53 -24 -26 c-13 -15 -177
-193 -365 -396 -187 -203 -342 -372 -344 -376 -2 -6 243 -111 260 -111 3 0 59
57 123 126 l118 127 -72 30 -71 30 52 56 c194 208 209 223 227 218 42 -11 571
-233 568 -238 -8 -21 -762 -823 -771 -821 -26 7 -777 318 -841 348 -122 57
-195 139 -195 219 0 38 31 106 72 158 65 82 801 873 856 920 136 114 275 146
453 101z m-1866 -37 c63 -22 849 -343 868 -354 7 -4 -57 -76 -300 -336 l-64
-68 -210 86 c-115 48 -209 90 -209 92 0 3 20 28 45 56 25 28 41 55 37 59 -9 9
-254 110 -257 106 -159 -167 -733 -794 -730 -797 4 -3 256 -111 261 -111 5 0
224 242 224 248 0 5 -27 20 -61 33 -33 14 -61 29 -61 33 0 4 57 70 127 146
112 123 129 138 148 130 92 -36 562 -231 565 -234 5 -6 -757 -826 -767 -826
-12 0 -777 317 -860 357 -169 81 -222 200 -142 324 35 54 58 80 507 565 409
442 454 480 609 518 50 12 202 -3 270 -27z"/>
<path d="M3243 3919 c-170 -20 -358 -90 -487 -183 -249 -178 -417 -496 -457
-862 -14 -131 -7 -353 16 -479 66 -370 280 -682 564 -824 176 -88 298 -114
531 -114 142 0 192 4 266 20 205 48 370 139 505 280 215 225 320 494 335 858
18 419 -95 760 -335 1009 -229 237 -554 340 -938 295z m312 -104 c145 -30 299
-131 390 -254 83 -114 165 -321 199 -501 40 -208 40 -532 0 -741 -36 -190
-118 -391 -209 -508 -129 -169 -319 -261 -533 -261 -299 1 -532 177 -657 495
-176 447 -143 1077 76 1448 63 107 176 215 280 266 46 23 113 47 149 55 87 19
219 19 305 1z"/>
<path d="M5178 3618 c-57 -17 -68 -24 -68 -43 0 -35 -39 -176 -65 -232 -28
-63 -96 -138 -147 -164 -21 -11 -58 -22 -83 -26 l-45 -6 0 -43 0 -44 105 0
105 0 0 -627 c0 -357 5 -657 10 -696 18 -124 69 -194 180 -246 52 -24 64 -26
205 -26 145 1 153 2 238 34 48 18 87 38 87 43 0 21 -23 88 -30 88 -4 0 -34
-12 -66 -27 -47 -21 -74 -27 -134 -27 -113 0 -165 36 -191 135 -8 30 -13 253
-16 697 l-5 652 201 0 201 0 0 50 0 50 -196 0 -196 0 4 240 c3 208 1 240 -12
239 -8 -1 -45 -10 -82 -21z"/>
<path d="M6271 3620 c-35 -11 -65 -21 -68 -24 -2 -2 -11 -35 -18 -73 -22 -104
-61 -203 -103 -258 -42 -55 -142 -115 -193 -115 -28 0 -29 -2 -29 -45 l0 -45
99 0 99 0 4 -657 c4 -574 7 -665 21 -716 46 -157 159 -227 370 -227 112 0 195
16 280 54 l56 25 -16 46 c-12 36 -19 45 -32 39 -155 -65 -260 -68 -325 -7 -63
58 -61 33 -64 771 l-3 672 196 0 195 0 0 50 0 50 -197 0 -196 0 6 240 c5 186
4 240 -6 239 -6 0 -41 -9 -76 -19z"/>
<path d="M7595 3186 c-287 -45 -485 -197 -502 -386 -5 -49 -2 -60 18 -83 29
-34 115 -49 198 -36 77 12 91 29 102 130 24 208 126 299 334 299 248 0 315
-104 315 -486 l0 -132 -82 -7 c-266 -21 -522 -67 -648 -116 -87 -33 -165 -83
-222 -142 -195 -202 -136 -603 106 -718 88 -42 152 -52 300 -47 108 4 143 9
198 30 89 33 206 108 283 179 l62 59 7 -68 c8 -91 23 -140 51 -168 22 -22 33
-24 112 -24 81 0 236 14 291 26 17 3 22 11 22 38 l0 33 -72 7 c-144 14 -143
12 -137 546 6 623 5 706 -15 780 -44 166 -145 251 -340 285 -104 18 -268 18
-381 1z m452 -978 c-7 -287 -35 -377 -150 -485 -73 -68 -140 -106 -222 -128
-124 -32 -205 -15 -281 60 -139 136 -134 415 9 559 103 103 324 170 636 195
11 1 13 -33 8 -201z"/>
<path d="M11715 3190 c-223 -30 -416 -136 -489 -271 -21 -37 -30 -71 -33 -118
-5 -60 -3 -68 19 -89 60 -56 264 -45 282 15 3 10 10 56 16 102 26 196 127 281
331 281 153 0 236 -48 281 -161 19 -47 22 -79 26 -256 4 -202 4 -203 -17 -203
-12 0 -88 -7 -169 -15 -502 -52 -728 -148 -829 -353 l-38 -76 0 -130 c0 -113
4 -139 23 -188 54 -133 148 -220 275 -251 84 -22 269 -22 355 -2 107 25 240
101 348 198 28 26 54 44 58 40 3 -3 6 -23 6 -44 0 -64 21 -138 47 -169 24 -29
27 -30 117 -30 84 0 222 12 289 26 23 5 27 11 27 39 l0 33 -76 7 c-61 5 -82
12 -100 30 -41 41 -43 105 -35 860 3 299 1 360 -13 419 -43 179 -140 264 -346
302 -81 14 -258 16 -355 4z m432 -972 c-8 -287 -42 -395 -159 -503 -134 -125
-335 -170 -451 -101 -139 81 -190 322 -106 500 38 82 93 133 193 180 125 60
192 76 461 109 75 10 68 29 62 -185z"/>
<path d="M165 3175 c-88 -7 -161 -13 -162 -14 -2 0 -3 -18 -3 -40 0 -39 0 -39
48 -46 64 -9 81 -20 100 -63 14 -32 17 -108 23 -572 8 -575 13 -636 62 -744
108 -236 439 -316 722 -174 104 53 179 120 270 243 13 18 14 15 15 -46 0 -36
3 -108 7 -159 l6 -93 111 7 c61 3 171 9 244 12 l132 7 0 38 c0 22 -3 39 -7 39
-5 0 -35 4 -67 10 -70 11 -98 34 -123 99 -17 43 -18 100 -18 779 l1 732 -46 0
c-25 0 -135 -7 -245 -15 -110 -8 -203 -15 -207 -15 -5 0 -8 -17 -8 -39 l0 -38
60 -6 c33 -3 75 -14 92 -24 60 -35 62 -49 62 -533 1 -384 -2 -443 -17 -505
-24 -93 -86 -218 -139 -279 -145 -168 -401 -207 -519 -79 -40 42 -66 101 -86
194 -16 74 -18 138 -18 549 0 256 3 538 8 628 l7 162 -72 -1 c-40 -1 -145 -7
-233 -14z"/>
<path d="M8520 3120 c0 -43 -2 -41 80 -54 60 -10 96 -40 129 -108 17 -35 121
-367 231 -738 110 -371 206 -690 211 -708 l11 -33 91 3 90 3 206 618 206 618
201 -618 202 -618 90 -3 c80 -2 91 -1 96 15 68 229 395 1272 418 1333 63 172
117 223 261 245 36 6 37 7 37 45 l0 40 -330 0 -330 0 0 -39 c0 -42 11 -51 59
-51 44 0 121 -27 147 -51 31 -29 39 -77 25 -147 -6 -31 -78 -284 -160 -561
l-148 -504 -26 79 c-14 43 -98 311 -187 594 -89 283 -170 543 -181 578 l-21
63 -71 -3 -70 -3 -73 -220 c-40 -121 -137 -416 -215 -655 l-142 -435 -153 535
c-85 294 -157 563 -160 597 -6 56 -5 63 18 86 26 26 83 47 128 47 57 1 70 10
70 51 l0 39 -370 0 -370 0 0 -40z"/>
</g>
</svg>
